<svg xmlns="http://www.w3.org/2000/svg" width="32" height="32" viewBox="0 0 32 32" fill="none">
<g clip-path="url(#clip0_987_8171)">
<path d="M30.6672 32H24.0005C23.4672 32 22.9858 31.6827 22.7752 31.1933C22.5645 30.704 22.6658 30.1347 23.0338 29.748C24.0898 28.6373 25.6565 28 27.3338 28C29.0112 28 30.5778 28.6373 31.6338 29.748C32.0018 30.1347 32.1032 30.704 31.8925 31.1933C31.6818 31.6827 31.2005 32 30.6672 32ZM20.5592 31.1933C20.7698 30.704 20.6685 30.1347 20.3005 29.748C19.2445 28.6373 17.6778 28 16.0005 28C14.3232 28 12.7565 28.6373 11.7005 29.748C11.3325 30.1347 11.2312 30.704 11.4418 31.1933C11.6525 31.6827 12.1338 32 12.6672 32H19.3338C19.8672 32 20.3485 31.6827 20.5592 31.1933ZM9.22583 31.1933C9.4365 30.704 9.33516 30.1347 8.96716 29.748C7.91116 28.6373 6.3445 28 4.66716 28C2.98983 28 1.42316 28.6373 0.367162 29.748C-0.000837604 30.1347 -0.102171 30.704 0.108496 31.1933C0.319162 31.6827 0.800496 32 1.33383 32H8.0005C8.53383 32 9.01516 31.6827 9.22583 31.1933ZM4.66716 26.6667C6.1405 26.6667 7.33383 25.4733 7.33383 24C7.33383 22.5267 6.1405 21.3333 4.66716 21.3333C3.19383 21.3333 2.0005 22.5267 2.0005 24C2.0005 25.4733 3.19383 26.6667 4.66716 26.6667ZM16.0005 26.6667C17.4738 26.6667 18.6672 25.4733 18.6672 24C18.6672 22.5267 17.4738 21.3333 16.0005 21.3333C14.5272 21.3333 13.3338 22.5267 13.3338 24C13.3338 25.4733 14.5272 26.6667 16.0005 26.6667ZM27.3338 26.6667C28.8072 26.6667 30.0005 25.4733 30.0005 24C30.0005 22.5267 28.8072 21.3333 27.3338 21.3333C25.8605 21.3333 24.6672 22.5267 24.6672 24C24.6672 25.4733 25.8605 26.6667 27.3338 26.6667ZM6.0005 6.66667C7.84183 6.66667 9.33383 5.17467 9.33383 3.33333C9.33383 1.492 7.84183 0 6.0005 0C4.15916 0 2.66716 1.492 2.66716 3.33333C2.66716 5.17467 4.15916 6.66667 6.0005 6.66667ZM27.3338 0H10.9872C11.6258 0.953333 12.0005 2.1 12.0005 3.33333C12.0005 4.03867 11.8565 4.70533 11.6325 5.33333H18.5085C20.4432 5.33333 22.2205 6.63733 22.5885 8.536C23.0845 11.0893 21.1325 13.3333 18.6658 13.3333H13.3325V17.3333C13.3325 18.0693 13.9298 18.6667 14.6658 18.6667H21.3325V17.3333C21.3325 16.5973 21.9298 16 22.6658 16H25.3325C26.0685 16 26.6658 16.5973 26.6658 17.3333V18.6667H27.3325C29.9098 18.6667 31.9992 16.5773 31.9992 14V4.66667C31.9992 2.08933 29.9112 0 27.3338 0ZM10.6672 17.3333V10.6667H18.6672C19.4045 10.6667 20.0005 10.0693 20.0005 9.33333C20.0005 8.59733 19.4045 8 18.6672 8H5.33383C2.3885 8 0.0004957 10.388 0.0004957 13.3333V17.3333C0.0004957 18.0693 0.597829 18.6667 1.33383 18.6667H9.33383C10.0698 18.6667 10.6672 18.0693 10.6672 17.3333Z" fill="#616161"/>
</g>
<defs>
<clipPath id="clip0_987_8171">
<rect width="32" height="32" fill="white"/>
</clipPath>
</defs>
</svg>