<svg xmlns="http://www.w3.org/2000/svg" width="32" height="32" viewBox="0 0 32 32" fill="none">
<g clip-path="url(#clip0_987_8179)">
<path d="M12.6667 3.33333C12.6667 1.492 14.1587 0 16 0C17.8413 0 19.3333 1.492 19.3333 3.33333C19.3333 5.17467 17.8413 6.66667 16 6.66667C14.1587 6.66667 12.6667 5.17467 12.6667 3.33333ZM26.6667 30.6667C26.6667 31.404 26.0707 32 25.3333 32H6.66667C5.92933 32 5.33333 31.404 5.33333 30.6667C5.33333 29.9293 5.92933 29.3333 6.66667 29.3333H12V12.8373L7.788 19.388C7.39067 20.008 6.56667 20.1893 5.94533 19.788C5.32667 19.3907 5.14667 18.5653 5.54533 17.9453L9.97067 11.0613C11.2027 9.144 13.2973 8 15.5773 8H16.4213C18.7013 8 20.796 9.144 22.0293 11.0613L26.4533 17.9453C26.852 18.5653 26.672 19.3907 26.0533 19.788C25.8293 19.932 25.5813 20 25.3333 20C24.8947 20 24.4653 19.784 24.2107 19.388L19.9987 12.836V29.3333H25.332C26.0693 29.3333 26.6667 29.9293 26.6667 30.6667ZM17.3333 21.3333H14.6667V29.3333H17.3333V21.3333ZM30.9667 3.31733L29.0947 2.884L28.6267 1.00933C28.4787 0.416 27.9453 0 27.3333 0C26.7213 0 26.188 0.416 26.04 1.00933L25.568 2.9L23.6773 3.372C23.084 3.52 22.668 4.05333 22.668 4.66533C22.668 5.27733 23.084 5.81067 23.6773 5.95867L25.568 6.43067L26.04 8.32133C26.188 8.91467 26.7213 9.33067 27.3333 9.33067C27.9453 9.33067 28.4787 8.91467 28.6267 8.32133L29.1027 6.41467L31.012 5.90133C31.6027 5.74267 32.0093 5.20133 31.9987 4.58933C31.988 3.97867 31.5613 3.452 30.9653 3.31467L30.9667 3.31733ZM7.388 7.54267C7.76533 7.384 8.00667 7.012 8 6.60267C7.992 6.19333 7.736 5.83067 7.35467 5.68667L5.62267 5.03067L4.92933 3.296C4.77733 2.916 4.40933 2.66667 4 2.66667C3.59067 2.66667 3.22267 2.916 3.07067 3.296L2.37333 5.04L0.629333 5.73733C0.249333 5.88933 0 6.25733 0 6.66667C0 7.076 0.249333 7.444 0.629333 7.596L2.37333 8.29333L3.07067 10.0373C3.22267 10.4173 3.59067 10.6667 4 10.6667C4.40933 10.6667 4.77733 10.4173 4.92933 10.0373L5.63067 8.28267L7.388 7.54267Z" fill="#616161"/>
</g>
<defs>
<clipPath id="clip0_987_8179">
<rect width="32" height="32" fill="white"/>
</clipPath>
</defs>
</svg>