<svg width="20" height="20" viewBox="0 0 14 14" fill="none" xmlns="http://www.w3.org/2000/svg">
<g id="wrapper" clip-path="url(#clip0_190023_15501)">
<g id="Union">
<path d="M3.87739 8.24261C3.92583 8.29104 4.00551 8.29104 4.05395 8.24261L5.64458 6.65198L6.98989 7.99886C7.03833 8.04729 7.11801 8.04729 7.16645 7.99886L10.7024 4.45979C10.7508 4.41136 10.7508 4.33167 10.7024 4.28323L10.1274 3.70823C10.1039 3.68497 10.0722 3.67192 10.0391 3.67192C10.006 3.67192 9.97432 3.68497 9.95083 3.70823L7.07895 6.58323L5.73364 5.23636C5.71015 5.21309 5.67842 5.20004 5.64536 5.20004C5.6123 5.20004 5.58057 5.21309 5.55708 5.23636L3.30239 7.49104C3.27913 7.51454 3.26608 7.54626 3.26608 7.57932C3.26608 7.61239 3.27913 7.64411 3.30239 7.66761L3.87739 8.24261Z" fill="current" fill-opacity="0.85"/>
<path d="M13.1245 1.50195H7.56201V0.501953C7.56201 0.433203 7.50576 0.376953 7.43701 0.376953H6.56201C6.49326 0.376953 6.43701 0.433203 6.43701 0.501953V1.50195H0.874512C0.597949 1.50195 0.374512 1.72539 0.374512 2.00195V10.127C0.374512 10.4035 0.597949 10.627 0.874512 10.627H6.44326V11.127L3.86826 12.816C3.85457 12.8249 3.84278 12.8364 3.83356 12.8499C3.82434 12.8633 3.81787 12.8785 3.81453 12.8945C3.81119 12.9104 3.81104 12.9269 3.8141 12.943C3.81715 12.959 3.82334 12.9743 3.83232 12.9879L4.30576 13.7254V13.727C4.34326 13.7848 4.42139 13.8004 4.4792 13.7629L6.99951 12.1098L9.51982 13.7629C9.57764 13.8004 9.65576 13.7848 9.69326 13.727V13.7254L10.1667 12.9879C10.1845 12.9603 10.1907 12.9267 10.184 12.8946C10.1773 12.8624 10.1581 12.8342 10.1308 12.816L7.56201 11.1316V10.627H13.1245C13.4011 10.627 13.6245 10.4035 13.6245 10.127V2.00195C13.6245 1.72539 13.4011 1.50195 13.1245 1.50195ZM12.4995 9.50195H1.49951V2.62695H12.4995V9.50195Z" fill="current" fill-opacity="0.68"/>
</g>
</g>
<defs>
<clipPath id="clip0_190023_15501">
<rect width="14" height="14" fill="white"/>
</clipPath>
</defs>
</svg>
